<?xml version="1.0" encoding="UTF-8" standalone="no"?>
<!DOCTYPE svg PUBLIC "-//W3C//DTD SVG 1.1//EN"
 "http://www.w3.org/Graphics/SVG/1.1/DTD/svg11.dtd">
<!-- Generated by graphviz version 2.40.1 (0)
 -->
<!-- Title: %3 Pages: 1 -->
<svg width="1062pt" height="476pt"
 viewBox="0.00 0.00 1062.00 476.00" xmlns="http://www.w3.org/2000/svg" xmlns:xlink="http://www.w3.org/1999/xlink">
<g id="graph0" class="graph" transform="scale(1 1) rotate(0) translate(4 472)">
<title>%3</title>
<polygon fill="#ffffff" stroke="transparent" points="-4,4 -4,-472 1058.004,-472 1058.004,4 -4,4"/>
<!-- [root] aws_instance.r100c86 (expand) -->
<g id="node1" class="node">
<title>[root] aws_instance.r100c86 (expand)</title>
<polygon fill="none" stroke="#000000" points="350.7301,-324 173.7301,-324 173.7301,-288 350.7301,-288 350.7301,-324"/>
<text text-anchor="middle" x="262.2301" y="-302.3" font-family="Times,serif" font-size="14.00" fill="#000000">aws_instance.r100c86</text>
</g>
<!-- [root] provider[&quot;registry.terraform.io/hashicorp/aws&quot;] -->
<g id="node6" class="node">
<title>[root] provider[&quot;registry.terraform.io/hashicorp/aws&quot;]</title>
<polygon fill="none" stroke="#000000" points="374.2301,-108 46.79,-90 374.2301,-72 701.6702,-90 374.2301,-108"/>
<text text-anchor="middle" x="374.2301" y="-86.3" font-family="Times,serif" font-size="14.00" fill="#000000">provider[&quot;registry.terraform.io/hashicorp/aws&quot;]</text>
</g>
<!-- [root] aws_instance.r100c86 (expand)&#45;&gt;[root] provider[&quot;registry.terraform.io/hashicorp/aws&quot;] -->
<g id="edge1" class="edge">
<title>[root] aws_instance.r100c86 (expand)&#45;&gt;[root] provider[&quot;registry.terraform.io/hashicorp/aws&quot;]</title>
<path fill="none" stroke="#000000" d="M271.5865,-287.9555C291.3256,-249.8872 337.3101,-161.2028 360.434,-116.6068"/>
<polygon fill="#000000" stroke="#000000" points="363.6394,-118.0283 365.1355,-107.5396 357.4251,-114.806 363.6394,-118.0283"/>
</g>
<!-- [root] aws_internet_gateway.gw (expand) -->
<g id="node2" class="node">
<title>[root] aws_internet_gateway.gw (expand)</title>
<polygon fill="none" stroke="#000000" points="822.7301,-324 621.7301,-324 621.7301,-288 822.7301,-288 822.7301,-324"/>
<text text-anchor="middle" x="722.2301" y="-302.3" font-family="Times,serif" font-size="14.00" fill="#000000">aws_internet_gateway.gw</text>
</g>
<!-- [root] aws_vpc.primary (expand) -->
<g id="node5" class="node">
<title>[root] aws_vpc.primary (expand)</title>
<polygon fill="none" stroke="#000000" points="555.7301,-180 416.7301,-180 416.7301,-144 555.7301,-144 555.7301,-180"/>
<text text-anchor="middle" x="486.2301" y="-158.3" font-family="Times,serif" font-size="14.00" fill="#000000">aws_vpc.primary</text>
</g>
<!-- [root] aws_internet_gateway.gw (expand)&#45;&gt;[root] aws_vpc.primary (expand) -->
<g id="edge2" class="edge">
<title>[root] aws_internet_gateway.gw (expand)&#45;&gt;[root] aws_vpc.primary (expand)</title>
<path fill="none" stroke="#000000" d="M692.3405,-287.7623C649.6935,-261.7404 571.3718,-213.9508 524.5246,-185.3661"/>
<polygon fill="#000000" stroke="#000000" points="526.2364,-182.3106 515.877,-180.0896 522.5903,-188.2861 526.2364,-182.3106"/>
</g>
<!-- [root] aws_route_table_association.a (expand) -->
<g id="node3" class="node">
<title>[root] aws_route_table_association.a (expand)</title>
<polygon fill="none" stroke="#000000" points="603.2301,-324 369.2301,-324 369.2301,-288 603.2301,-288 603.2301,-324"/>
<text text-anchor="middle" x="486.2301" y="-302.3" font-family="Times,serif" font-size="14.00" fill="#000000">aws_route_table_association.a</text>
</g>
<!-- [root] aws_subnet.main (expand) -->
<g id="node4" class="node">
<title>[root] aws_subnet.main (expand)</title>
<polygon fill="none" stroke="#000000" points="556.2301,-252 416.2301,-252 416.2301,-216 556.2301,-216 556.2301,-252"/>
<text text-anchor="middle" x="486.2301" y="-230.3" font-family="Times,serif" font-size="14.00" fill="#000000">aws_subnet.main</text>
</g>
<!-- [root] aws_route_table_association.a (expand)&#45;&gt;[root] aws_subnet.main (expand) -->
<g id="edge3" class="edge">
<title>[root] aws_route_table_association.a (expand)&#45;&gt;[root] aws_subnet.main (expand)</title>
<path fill="none" stroke="#000000" d="M486.2301,-287.8314C486.2301,-280.131 486.2301,-270.9743 486.2301,-262.4166"/>
<polygon fill="#000000" stroke="#000000" points="489.7302,-262.4132 486.2301,-252.4133 482.7302,-262.4133 489.7302,-262.4132"/>
</g>
<!-- [root] aws_subnet.main (expand)&#45;&gt;[root] aws_vpc.primary (expand) -->
<g id="edge4" class="edge">
<title>[root] aws_subnet.main (expand)&#45;&gt;[root] aws_vpc.primary (expand)</title>
<path fill="none" stroke="#000000" d="M486.2301,-215.8314C486.2301,-208.131 486.2301,-198.9743 486.2301,-190.4166"/>
<polygon fill="#000000" stroke="#000000" points="489.7302,-190.4132 486.2301,-180.4133 482.7302,-190.4133 489.7302,-190.4132"/>
</g>
<!-- [root] aws_vpc.primary (expand)&#45;&gt;[root] provider[&quot;registry.terraform.io/hashicorp/aws&quot;] -->
<g id="edge5" class="edge">
<title>[root] aws_vpc.primary (expand)&#45;&gt;[root] provider[&quot;registry.terraform.io/hashicorp/aws&quot;]</title>
<path fill="none" stroke="#000000" d="M457.9678,-143.8314C442.9862,-134.2003 424.4611,-122.2913 408.6471,-112.1252"/>
<polygon fill="#000000" stroke="#000000" points="410.4847,-109.1457 400.1802,-106.6822 406.6994,-115.034 410.4847,-109.1457"/>
</g>
<!-- [root] var.region -->
<g id="node7" class="node">
<title>[root] var.region</title>
<polygon fill="none" stroke="#000000" points="412.7301,-36 329.7301,-36 329.7301,0 418.7301,0 418.7301,-30 412.7301,-36"/>
<polyline fill="none" stroke="#000000" points="412.7301,-36 412.7301,-30 "/>
<polyline fill="none" stroke="#000000" points="418.7301,-30 412.7301,-30 "/>
<text text-anchor="middle" x="374.2301" y="-14.3" font-family="Times,serif" font-size="14.00" fill="#000000">var.region</text>
</g>
<!-- [root] provider[&quot;registry.terraform.io/hashicorp/aws&quot;]&#45;&gt;[root] var.region -->
<g id="edge12" class="edge">
<title>[root] provider[&quot;registry.terraform.io/hashicorp/aws&quot;]&#45;&gt;[root] var.region</title>
<path fill="none" stroke="#000000" d="M374.2301,-71.8314C374.2301,-64.131 374.2301,-54.9743 374.2301,-46.4166"/>
<polygon fill="#000000" stroke="#000000" points="377.7302,-46.4132 374.2301,-36.4133 370.7302,-46.4133 377.7302,-46.4132"/>
</g>
<!-- [root] meta.count&#45;boundary (EachMode fixup) -->
<g id="node8" class="node">
<title>[root] meta.count&#45;boundary (EachMode fixup)</title>
<ellipse fill="none" stroke="#000000" cx="224.2301" cy="-378" rx="224.4604" ry="18"/>
<text text-anchor="middle" x="224.2301" y="-374.3" font-family="Times,serif" font-size="14.00" fill="#000000">[root] meta.count&#45;boundary (EachMode fixup)</text>
</g>
<!-- [root] meta.count&#45;boundary (EachMode fixup)&#45;&gt;[root] aws_instance.r100c86 (expand) -->
<g id="edge6" class="edge">
<title>[root] meta.count&#45;boundary (EachMode fixup)&#45;&gt;[root] aws_instance.r100c86 (expand)</title>
<path fill="none" stroke="#000000" d="M233.8191,-359.8314C238.0619,-351.7925 243.1422,-342.1666 247.8261,-333.2918"/>
<polygon fill="#000000" stroke="#000000" points="250.9397,-334.8908 252.512,-324.4133 244.749,-331.6235 250.9397,-334.8908"/>
</g>
<!-- [root] meta.count&#45;boundary (EachMode fixup)&#45;&gt;[root] aws_internet_gateway.gw (expand) -->
<g id="edge7" class="edge">
<title>[root] meta.count&#45;boundary (EachMode fixup)&#45;&gt;[root] aws_internet_gateway.gw (expand)</title>
<path fill="none" stroke="#000000" d="M340.6355,-362.5386C415.1923,-352.4598 514.2793,-338.7401 611.5256,-324.0886"/>
<polygon fill="#000000" stroke="#000000" points="612.1724,-327.5307 621.5373,-322.5759 611.1266,-320.6093 612.1724,-327.5307"/>
</g>
<!-- [root] meta.count&#45;boundary (EachMode fixup)&#45;&gt;[root] aws_route_table_association.a (expand) -->
<g id="edge8" class="edge">
<title>[root] meta.count&#45;boundary (EachMode fixup)&#45;&gt;[root] aws_route_table_association.a (expand)</title>
<path fill="none" stroke="#000000" d="M287.319,-360.6626C324.4493,-350.4588 371.6405,-337.4903 410.7382,-326.7459"/>
<polygon fill="#000000" stroke="#000000" points="411.7778,-330.09 420.4929,-324.0652 409.9229,-323.3402 411.7778,-330.09"/>
</g>
<!-- [root] provider[&quot;registry.terraform.io/hashicorp/aws&quot;] (close) -->
<g id="node9" class="node">
<title>[root] provider[&quot;registry.terraform.io/hashicorp/aws&quot;] (close)</title>
<ellipse fill="none" stroke="#000000" cx="760.2301" cy="-378" rx="293.548" ry="18"/>
<text text-anchor="middle" x="760.2301" y="-374.3" font-family="Times,serif" font-size="14.00" fill="#000000">[root] provider[&quot;registry.terraform.io/hashicorp/aws&quot;] (close)</text>
</g>
<!-- [root] provider[&quot;registry.terraform.io/hashicorp/aws&quot;] (close)&#45;&gt;[root] aws_instance.r100c86 (expand) -->
<g id="edge9" class="edge">
<title>[root] provider[&quot;registry.terraform.io/hashicorp/aws&quot;] (close)&#45;&gt;[root] aws_instance.r100c86 (expand)</title>
<path fill="none" stroke="#000000" d="M628.939,-361.8705C553.4355,-352.2112 456.5579,-339.1707 361.0096,-324.0851"/>
<polygon fill="#000000" stroke="#000000" points="361.2965,-320.5869 350.8714,-322.4758 360.1991,-327.5003 361.2965,-320.5869"/>
</g>
<!-- [root] provider[&quot;registry.terraform.io/hashicorp/aws&quot;] (close)&#45;&gt;[root] aws_internet_gateway.gw (expand) -->
<g id="edge10" class="edge">
<title>[root] provider[&quot;registry.terraform.io/hashicorp/aws&quot;] (close)&#45;&gt;[root] aws_internet_gateway.gw (expand)</title>
<path fill="none" stroke="#000000" d="M750.6411,-359.8314C746.3984,-351.7925 741.318,-342.1666 736.6341,-333.2918"/>
<polygon fill="#000000" stroke="#000000" points="739.7112,-331.6235 731.9482,-324.4133 733.5205,-334.8908 739.7112,-331.6235"/>
</g>
<!-- [root] provider[&quot;registry.terraform.io/hashicorp/aws&quot;] (close)&#45;&gt;[root] aws_route_table_association.a (expand) -->
<g id="edge11" class="edge">
<title>[root] provider[&quot;registry.terraform.io/hashicorp/aws&quot;] (close)&#45;&gt;[root] aws_route_table_association.a (expand)</title>
<path fill="none" stroke="#000000" d="M693.2022,-360.3868C654.4157,-350.1947 605.4008,-337.3149 564.8068,-326.6479"/>
<polygon fill="#000000" stroke="#000000" points="565.509,-323.2137 554.9478,-324.0572 563.7299,-329.9838 565.509,-323.2137"/>
</g>
<!-- [root] root -->
<g id="node10" class="node">
<title>[root] root</title>
<ellipse fill="none" stroke="#000000" cx="492.2301" cy="-450" rx="58.4896" ry="18"/>
<text text-anchor="middle" x="492.2301" y="-446.3" font-family="Times,serif" font-size="14.00" fill="#000000">[root] root</text>
</g>
<!-- [root] root&#45;&gt;[root] meta.count&#45;boundary (EachMode fixup) -->
<g id="edge13" class="edge">
<title>[root] root&#45;&gt;[root] meta.count&#45;boundary (EachMode fixup)</title>
<path fill="none" stroke="#000000" d="M447.9754,-438.1107C407.3615,-427.1995 346.3912,-410.8194 298.349,-397.9125"/>
<polygon fill="#000000" stroke="#000000" points="299.1802,-394.5118 288.6146,-395.2973 297.364,-401.2721 299.1802,-394.5118"/>
</g>
<!-- [root] root&#45;&gt;[root] provider[&quot;registry.terraform.io/hashicorp/aws&quot;] (close) -->
<g id="edge14" class="edge">
<title>[root] root&#45;&gt;[root] provider[&quot;registry.terraform.io/hashicorp/aws&quot;] (close)</title>
<path fill="none" stroke="#000000" d="M536.4849,-438.1107C576.8206,-427.2742 637.2347,-411.0435 685.1222,-398.1782"/>
<polygon fill="#000000" stroke="#000000" points="686.0812,-401.5448 694.8306,-395.57 684.265,-394.7845 686.0812,-401.5448"/>
</g>
</g>
</svg>
