<?xml version="1.0" encoding="UTF-8" standalone="no"?>
<!DOCTYPE svg PUBLIC "-//W3C//DTD SVG 1.1//EN"
 "http://www.w3.org/Graphics/SVG/1.1/DTD/svg11.dtd">
<!-- Generated by graphviz version 2.40.1 (0)
 -->
<!-- Title: %3 Pages: 1 -->
<svg width="2292pt" height="548pt"
 viewBox="0.00 0.00 2291.50 548.00" xmlns="http://www.w3.org/2000/svg" xmlns:xlink="http://www.w3.org/1999/xlink">
<g id="graph0" class="graph" transform="scale(1 1) rotate(0) translate(4 544)">
<title>%3</title>
<polygon fill="#ffffff" stroke="transparent" points="-4,4 -4,-544 2287.5,-544 2287.5,4 -4,4"/>
<!-- [root] aws_instance.r100c86 (expand) -->
<g id="node1" class="node">
<title>[root] aws_instance.r100c86 (expand)</title>
<polygon fill="none" stroke="#000000" points="1642.5,-324 1465.5,-324 1465.5,-288 1642.5,-288 1642.5,-324"/>
<text text-anchor="middle" x="1554" y="-302.3" font-family="Times,serif" font-size="14.00" fill="#000000">aws_instance.r100c86</text>
</g>
<!-- [root] aws_security_group.r03hg16_allow_all (expand) -->
<g id="node9" class="node">
<title>[root] aws_security_group.r03hg16_allow_all (expand)</title>
<polygon fill="none" stroke="#000000" points="1290.5,-252 995.5,-252 995.5,-216 1290.5,-216 1290.5,-252"/>
<text text-anchor="middle" x="1143" y="-230.3" font-family="Times,serif" font-size="14.00" fill="#000000">aws_security_group.r03hg16_allow_all</text>
</g>
<!-- [root] aws_instance.r100c86 (expand)&#45;&gt;[root] aws_security_group.r03hg16_allow_all (expand) -->
<g id="edge1" class="edge">
<title>[root] aws_instance.r100c86 (expand)&#45;&gt;[root] aws_security_group.r03hg16_allow_all (expand)</title>
<path fill="none" stroke="#000000" d="M1465.3251,-290.4657C1404.0477,-279.731 1322.018,-265.3608 1256.0474,-253.8039"/>
<polygon fill="#000000" stroke="#000000" points="1256.4736,-250.3254 1246.0196,-252.0472 1255.2657,-257.2204 1256.4736,-250.3254"/>
</g>
<!-- [root] aws_subnet.main1 (expand) -->
<g id="node11" class="node">
<title>[root] aws_subnet.main1 (expand)</title>
<polygon fill="none" stroke="#000000" points="977.5,-252 828.5,-252 828.5,-216 977.5,-216 977.5,-252"/>
<text text-anchor="middle" x="903" y="-230.3" font-family="Times,serif" font-size="14.00" fill="#000000">aws_subnet.main1</text>
</g>
<!-- [root] aws_instance.r100c86 (expand)&#45;&gt;[root] aws_subnet.main1 (expand) -->
<g id="edge2" class="edge">
<title>[root] aws_instance.r100c86 (expand)&#45;&gt;[root] aws_subnet.main1 (expand)</title>
<path fill="none" stroke="#000000" d="M1465.048,-300.8243C1355.0232,-293.6848 1161.885,-278.7464 987.7005,-252.1719"/>
<polygon fill="#000000" stroke="#000000" points="987.9951,-248.6761 977.5785,-250.6111 986.9282,-255.5943 987.9951,-248.6761"/>
</g>
<!-- [root] var.aws_instance_my_infra_ami -->
<g id="node19" class="node">
<title>[root] var.aws_instance_my_infra_ami</title>
<polygon fill="none" stroke="#000000" points="1628.5,-252 1391.5,-252 1391.5,-216 1634.5,-216 1634.5,-246 1628.5,-252"/>
<polyline fill="none" stroke="#000000" points="1628.5,-252 1628.5,-246 "/>
<polyline fill="none" stroke="#000000" points="1634.5,-246 1628.5,-246 "/>
<text text-anchor="middle" x="1513" y="-230.3" font-family="Times,serif" font-size="14.00" fill="#000000">var.aws_instance_my_infra_ami</text>
</g>
<!-- [root] aws_instance.r100c86 (expand)&#45;&gt;[root] var.aws_instance_my_infra_ami -->
<g id="edge3" class="edge">
<title>[root] aws_instance.r100c86 (expand)&#45;&gt;[root] var.aws_instance_my_infra_ami</title>
<path fill="none" stroke="#000000" d="M1543.654,-287.8314C1539.0763,-279.7925 1533.5948,-270.1666 1528.5412,-261.2918"/>
<polygon fill="#000000" stroke="#000000" points="1531.4752,-259.3712 1523.4853,-252.4133 1525.3923,-262.8351 1531.4752,-259.3712"/>
</g>
<!-- [root] var.aws_instance_name -->
<g id="node20" class="node">
<title>[root] var.aws_instance_name</title>
<polygon fill="none" stroke="#000000" points="1831.5,-252 1652.5,-252 1652.5,-216 1837.5,-216 1837.5,-246 1831.5,-252"/>
<polyline fill="none" stroke="#000000" points="1831.5,-252 1831.5,-246 "/>
<polyline fill="none" stroke="#000000" points="1837.5,-246 1831.5,-246 "/>
<text text-anchor="middle" x="1745" y="-230.3" font-family="Times,serif" font-size="14.00" fill="#000000">var.aws_instance_name</text>
</g>
<!-- [root] aws_instance.r100c86 (expand)&#45;&gt;[root] var.aws_instance_name -->
<g id="edge4" class="edge">
<title>[root] aws_instance.r100c86 (expand)&#45;&gt;[root] var.aws_instance_name</title>
<path fill="none" stroke="#000000" d="M1602.1974,-287.8314C1628.1966,-278.0306 1660.4536,-265.8709 1687.7281,-255.5894"/>
<polygon fill="#000000" stroke="#000000" points="1689.0266,-258.8404 1697.1492,-252.038 1686.5574,-252.2904 1689.0266,-258.8404"/>
</g>
<!-- [root] aws_internet_gateway.maingw1 (expand) -->
<g id="node2" class="node">
<title>[root] aws_internet_gateway.maingw1 (expand)</title>
<polygon fill="none" stroke="#000000" points="810.5,-252 565.5,-252 565.5,-216 810.5,-216 810.5,-252"/>
<text text-anchor="middle" x="688" y="-230.3" font-family="Times,serif" font-size="14.00" fill="#000000">aws_internet_gateway.maingw1</text>
</g>
<!-- [root] aws_vpc.primary (expand) -->
<g id="node14" class="node">
<title>[root] aws_vpc.primary (expand)</title>
<polygon fill="none" stroke="#000000" points="543.5,-180 404.5,-180 404.5,-144 543.5,-144 543.5,-180"/>
<text text-anchor="middle" x="474" y="-158.3" font-family="Times,serif" font-size="14.00" fill="#000000">aws_vpc.primary</text>
</g>
<!-- [root] aws_internet_gateway.maingw1 (expand)&#45;&gt;[root] aws_vpc.primary (expand) -->
<g id="edge5" class="edge">
<title>[root] aws_internet_gateway.maingw1 (expand)&#45;&gt;[root] aws_vpc.primary (expand)</title>
<path fill="none" stroke="#000000" d="M634.275,-215.9243C604.8927,-206.0387 568.3148,-193.7321 537.5242,-183.3726"/>
<polygon fill="#000000" stroke="#000000" points="538.3412,-179.9548 527.7471,-180.0831 536.1089,-186.5893 538.3412,-179.9548"/>
</g>
<!-- [root] aws_route_table.r (expand) -->
<g id="node3" class="node">
<title>[root] aws_route_table.r (expand)</title>
<polygon fill="none" stroke="#000000" points="760.5,-324 615.5,-324 615.5,-288 760.5,-288 760.5,-324"/>
<text text-anchor="middle" x="688" y="-302.3" font-family="Times,serif" font-size="14.00" fill="#000000">aws_route_table.r</text>
</g>
<!-- [root] aws_route_table.r (expand)&#45;&gt;[root] aws_internet_gateway.maingw1 (expand) -->
<g id="edge6" class="edge">
<title>[root] aws_route_table.r (expand)&#45;&gt;[root] aws_internet_gateway.maingw1 (expand)</title>
<path fill="none" stroke="#000000" d="M688,-287.8314C688,-280.131 688,-270.9743 688,-262.4166"/>
<polygon fill="#000000" stroke="#000000" points="691.5001,-262.4132 688,-252.4133 684.5001,-262.4133 691.5001,-262.4132"/>
</g>
<!-- [root] aws_route_table.s (expand) -->
<g id="node4" class="node">
<title>[root] aws_route_table.s (expand)</title>
<polygon fill="none" stroke="#000000" points="547,-252 401,-252 401,-216 547,-216 547,-252"/>
<text text-anchor="middle" x="474" y="-230.3" font-family="Times,serif" font-size="14.00" fill="#000000">aws_route_table.s</text>
</g>
<!-- [root] aws_route_table.s (expand)&#45;&gt;[root] aws_vpc.primary (expand) -->
<g id="edge7" class="edge">
<title>[root] aws_route_table.s (expand)&#45;&gt;[root] aws_vpc.primary (expand)</title>
<path fill="none" stroke="#000000" d="M474,-215.8314C474,-208.131 474,-198.9743 474,-190.4166"/>
<polygon fill="#000000" stroke="#000000" points="477.5001,-190.4132 474,-180.4133 470.5001,-190.4133 477.5001,-190.4132"/>
</g>
<!-- [root] aws_route_table.t (expand) -->
<g id="node5" class="node">
<title>[root] aws_route_table.t (expand)</title>
<polygon fill="none" stroke="#000000" points="144,-324 0,-324 0,-288 144,-288 144,-324"/>
<text text-anchor="middle" x="72" y="-302.3" font-family="Times,serif" font-size="14.00" fill="#000000">aws_route_table.t</text>
</g>
<!-- [root] aws_route_table.t (expand)&#45;&gt;[root] aws_vpc.primary (expand) -->
<g id="edge8" class="edge">
<title>[root] aws_route_table.t (expand)&#45;&gt;[root] aws_vpc.primary (expand)</title>
<path fill="none" stroke="#000000" d="M122.2563,-287.8377C172.7228,-269.616 252.7204,-240.7765 322,-216 352.0747,-205.2444 385.5217,-193.3541 413.3668,-183.4751"/>
<polygon fill="#000000" stroke="#000000" points="414.7129,-186.7114 422.9676,-180.0698 412.3728,-180.1141 414.7129,-186.7114"/>
</g>
<!-- [root] aws_route_table_association.a (expand) -->
<g id="node6" class="node">
<title>[root] aws_route_table_association.a (expand)</title>
<polygon fill="none" stroke="#000000" points="805,-396 571,-396 571,-360 805,-360 805,-396"/>
<text text-anchor="middle" x="688" y="-374.3" font-family="Times,serif" font-size="14.00" fill="#000000">aws_route_table_association.a</text>
</g>
<!-- [root] aws_route_table_association.a (expand)&#45;&gt;[root] aws_route_table.r (expand) -->
<g id="edge9" class="edge">
<title>[root] aws_route_table_association.a (expand)&#45;&gt;[root] aws_route_table.r (expand)</title>
<path fill="none" stroke="#000000" d="M688,-359.8314C688,-352.131 688,-342.9743 688,-334.4166"/>
<polygon fill="#000000" stroke="#000000" points="691.5001,-334.4132 688,-324.4133 684.5001,-334.4133 691.5001,-334.4132"/>
</g>
<!-- [root] aws_route_table_association.a (expand)&#45;&gt;[root] aws_subnet.main1 (expand) -->
<g id="edge10" class="edge">
<title>[root] aws_route_table_association.a (expand)&#45;&gt;[root] aws_subnet.main1 (expand)</title>
<path fill="none" stroke="#000000" d="M715.3856,-359.7767C731.0869,-349.3201 751.1611,-335.9369 769,-324 802.5209,-301.5695 840.7043,-275.9135 867.7127,-257.7484"/>
<polygon fill="#000000" stroke="#000000" points="869.725,-260.6131 876.0689,-252.1275 865.8179,-254.8048 869.725,-260.6131"/>
</g>
<!-- [root] aws_route_table_association.b (expand) -->
<g id="node7" class="node">
<title>[root] aws_route_table_association.b (expand)</title>
<polygon fill="none" stroke="#000000" points="552.5,-396 317.5,-396 317.5,-360 552.5,-360 552.5,-396"/>
<text text-anchor="middle" x="435" y="-374.3" font-family="Times,serif" font-size="14.00" fill="#000000">aws_route_table_association.b</text>
</g>
<!-- [root] aws_route_table_association.b (expand)&#45;&gt;[root] aws_route_table.s (expand) -->
<g id="edge11" class="edge">
<title>[root] aws_route_table_association.b (expand)&#45;&gt;[root] aws_route_table.s (expand)</title>
<path fill="none" stroke="#000000" d="M459.5801,-359.7772C470.1482,-350.4022 481.3543,-338.0021 487,-324 495.0197,-304.1101 490.8678,-279.9868 485.2035,-261.7236"/>
<polygon fill="#000000" stroke="#000000" points="488.5108,-260.5781 481.9688,-252.2444 481.8859,-262.8389 488.5108,-260.5781"/>
</g>
<!-- [root] aws_subnet.main2 (expand) -->
<g id="node12" class="node">
<title>[root] aws_subnet.main2 (expand)</title>
<polygon fill="none" stroke="#000000" points="478.5,-324 329.5,-324 329.5,-288 478.5,-288 478.5,-324"/>
<text text-anchor="middle" x="404" y="-302.3" font-family="Times,serif" font-size="14.00" fill="#000000">aws_subnet.main2</text>
</g>
<!-- [root] aws_route_table_association.b (expand)&#45;&gt;[root] aws_subnet.main2 (expand) -->
<g id="edge12" class="edge">
<title>[root] aws_route_table_association.b (expand)&#45;&gt;[root] aws_subnet.main2 (expand)</title>
<path fill="none" stroke="#000000" d="M427.1774,-359.8314C423.7891,-351.9617 419.7459,-342.5712 415.9924,-333.8533"/>
<polygon fill="#000000" stroke="#000000" points="419.0973,-332.214 411.9279,-324.4133 412.6679,-334.9822 419.0973,-332.214"/>
</g>
<!-- [root] aws_route_table_association.c (expand) -->
<g id="node8" class="node">
<title>[root] aws_route_table_association.c (expand)</title>
<polygon fill="none" stroke="#000000" points="299,-396 65,-396 65,-360 299,-360 299,-396"/>
<text text-anchor="middle" x="182" y="-374.3" font-family="Times,serif" font-size="14.00" fill="#000000">aws_route_table_association.c</text>
</g>
<!-- [root] aws_route_table_association.c (expand)&#45;&gt;[root] aws_route_table.t (expand) -->
<g id="edge13" class="edge">
<title>[root] aws_route_table_association.c (expand)&#45;&gt;[root] aws_route_table.t (expand)</title>
<path fill="none" stroke="#000000" d="M154.2424,-359.8314C140.303,-350.7074 123.2402,-339.539 108.2769,-329.7449"/>
<polygon fill="#000000" stroke="#000000" points="110.0326,-326.711 99.7488,-324.1628 106.199,-332.5679 110.0326,-326.711"/>
</g>
<!-- [root] aws_subnet.main3 (expand) -->
<g id="node13" class="node">
<title>[root] aws_subnet.main3 (expand)</title>
<polygon fill="none" stroke="#000000" points="311.5,-324 162.5,-324 162.5,-288 311.5,-288 311.5,-324"/>
<text text-anchor="middle" x="237" y="-302.3" font-family="Times,serif" font-size="14.00" fill="#000000">aws_subnet.main3</text>
</g>
<!-- [root] aws_route_table_association.c (expand)&#45;&gt;[root] aws_subnet.main3 (expand) -->
<g id="edge14" class="edge">
<title>[root] aws_route_table_association.c (expand)&#45;&gt;[root] aws_subnet.main3 (expand)</title>
<path fill="none" stroke="#000000" d="M195.8788,-359.8314C202.2136,-351.5386 209.8384,-341.557 216.7926,-332.4533"/>
<polygon fill="#000000" stroke="#000000" points="219.6452,-334.4847 222.9343,-324.4133 214.0825,-330.2353 219.6452,-334.4847"/>
</g>
<!-- [root] aws_security_group.r03hg16_allow_all (expand)&#45;&gt;[root] aws_vpc.primary (expand) -->
<g id="edge15" class="edge">
<title>[root] aws_security_group.r03hg16_allow_all (expand)&#45;&gt;[root] aws_vpc.primary (expand)</title>
<path fill="none" stroke="#000000" d="M995.0873,-217.004C992.0317,-216.6652 988.9998,-216.3301 986,-216 833.106,-199.173 654.4041,-180.5671 553.6827,-170.1779"/>
<polygon fill="#000000" stroke="#000000" points="553.8917,-166.681 543.5855,-169.137 553.1738,-173.6441 553.8917,-166.681"/>
</g>
<!-- [root] aws_security_group_rule.example (expand) -->
<g id="node10" class="node">
<title>[root] aws_security_group_rule.example (expand)</title>
<polygon fill="none" stroke="#000000" points="1121,-396 861,-396 861,-360 1121,-360 1121,-396"/>
<text text-anchor="middle" x="991" y="-374.3" font-family="Times,serif" font-size="14.00" fill="#000000">aws_security_group_rule.example</text>
</g>
<!-- [root] aws_security_group_rule.example (expand)&#45;&gt;[root] aws_security_group.r03hg16_allow_all (expand) -->
<g id="edge16" class="edge">
<title>[root] aws_security_group_rule.example (expand)&#45;&gt;[root] aws_security_group.r03hg16_allow_all (expand)</title>
<path fill="none" stroke="#000000" d="M1010.2509,-359.7623C1037.2046,-334.2272 1086.2833,-287.7316 1116.6211,-258.9906"/>
<polygon fill="#000000" stroke="#000000" points="1119.053,-261.5079 1123.9054,-252.0896 1114.2387,-256.4263 1119.053,-261.5079"/>
</g>
<!-- [root] aws_subnet.main1 (expand)&#45;&gt;[root] aws_vpc.primary (expand) -->
<g id="edge17" class="edge">
<title>[root] aws_subnet.main1 (expand)&#45;&gt;[root] aws_vpc.primary (expand)</title>
<path fill="none" stroke="#000000" d="M828.3883,-217.7858C825.2192,-217.1686 822.0796,-216.5705 819,-216 728.3776,-199.2118 623.7224,-183.3197 553.6587,-173.1797"/>
<polygon fill="#000000" stroke="#000000" points="553.9754,-169.6893 543.5782,-171.726 552.9762,-176.6176 553.9754,-169.6893"/>
</g>
<!-- [root] aws_subnet.main2 (expand)&#45;&gt;[root] aws_vpc.primary (expand) -->
<g id="edge18" class="edge">
<title>[root] aws_subnet.main2 (expand)&#45;&gt;[root] aws_vpc.primary (expand)</title>
<path fill="none" stroke="#000000" d="M395.5742,-287.9526C388.0096,-268.9215 379.8121,-238.6195 392,-216 398.7016,-203.5626 409.6591,-193.5183 421.4142,-185.6213"/>
<polygon fill="#000000" stroke="#000000" points="423.4179,-188.497 430.0653,-180.247 419.724,-182.551 423.4179,-188.497"/>
</g>
<!-- [root] aws_subnet.main3 (expand)&#45;&gt;[root] aws_vpc.primary (expand) -->
<g id="edge19" class="edge">
<title>[root] aws_subnet.main3 (expand)&#45;&gt;[root] aws_vpc.primary (expand)</title>
<path fill="none" stroke="#000000" d="M265.7577,-287.8595C294.9216,-269.5314 341.4163,-240.5003 382,-216 398.9898,-205.7433 417.8756,-194.6119 434.0934,-185.135"/>
<polygon fill="#000000" stroke="#000000" points="435.9255,-188.1183 442.7998,-180.0563 432.3985,-182.0718 435.9255,-188.1183"/>
</g>
<!-- [root] provider[&quot;registry.terraform.io/hashicorp/aws&quot;] -->
<g id="node18" class="node">
<title>[root] provider[&quot;registry.terraform.io/hashicorp/aws&quot;]</title>
<polygon fill="none" stroke="#000000" points="474,-108 146.5599,-90 474,-72 801.4401,-90 474,-108"/>
<text text-anchor="middle" x="474" y="-86.3" font-family="Times,serif" font-size="14.00" fill="#000000">provider[&quot;registry.terraform.io/hashicorp/aws&quot;]</text>
</g>
<!-- [root] aws_vpc.primary (expand)&#45;&gt;[root] provider[&quot;registry.terraform.io/hashicorp/aws&quot;] -->
<g id="edge20" class="edge">
<title>[root] aws_vpc.primary (expand)&#45;&gt;[root] provider[&quot;registry.terraform.io/hashicorp/aws&quot;]</title>
<path fill="none" stroke="#000000" d="M474,-143.8314C474,-136.131 474,-126.9743 474,-118.4166"/>
<polygon fill="#000000" stroke="#000000" points="477.5001,-118.4132 474,-108.4133 470.5001,-118.4133 477.5001,-118.4132"/>
</g>
<!-- [root] output.KeyName -->
<g id="node15" class="node">
<title>[root] output.KeyName</title>
<polygon fill="none" stroke="#000000" points="2062.5,-396 1931.5,-396 1931.5,-360 2068.5,-360 2068.5,-390 2062.5,-396"/>
<polyline fill="none" stroke="#000000" points="2062.5,-396 2062.5,-390 "/>
<polyline fill="none" stroke="#000000" points="2068.5,-390 2062.5,-390 "/>
<text text-anchor="middle" x="2000" y="-374.3" font-family="Times,serif" font-size="14.00" fill="#000000">output.KeyName</text>
</g>
<!-- [root] output.KeyName&#45;&gt;[root] aws_instance.r100c86 (expand) -->
<g id="edge32" class="edge">
<title>[root] output.KeyName&#45;&gt;[root] aws_instance.r100c86 (expand)</title>
<path fill="none" stroke="#000000" d="M1931.1602,-361.7951C1928.0688,-361.168 1925.0046,-360.5662 1922,-360 1831.3944,-342.9269 1727.3799,-328.1002 1653.1002,-318.3253"/>
<polygon fill="#000000" stroke="#000000" points="1653.1906,-314.8074 1642.8209,-316.9798 1652.2821,-321.7482 1653.1906,-314.8074"/>
</g>
<!-- [root] output.Subnets&#45;Attached -->
<g id="node16" class="node">
<title>[root] output.Subnets&#45;Attached</title>
<polygon fill="none" stroke="#000000" points="2277.5,-396 2086.5,-396 2086.5,-360 2283.5,-360 2283.5,-390 2277.5,-396"/>
<polyline fill="none" stroke="#000000" points="2277.5,-396 2277.5,-390 "/>
<polyline fill="none" stroke="#000000" points="2283.5,-390 2277.5,-390 "/>
<text text-anchor="middle" x="2185" y="-374.3" font-family="Times,serif" font-size="14.00" fill="#000000">output.Subnets&#45;Attached</text>
</g>
<!-- [root] output.Subnets&#45;Attached&#45;&gt;[root] aws_instance.r100c86 (expand) -->
<g id="edge33" class="edge">
<title>[root] output.Subnets&#45;Attached&#45;&gt;[root] aws_instance.r100c86 (expand)</title>
<path fill="none" stroke="#000000" d="M2086.2172,-361.1458C2083.45,-360.7497 2080.7067,-360.3667 2078,-360 1930.2869,-339.9852 1758.2533,-323.5667 1652.7471,-314.2785"/>
<polygon fill="#000000" stroke="#000000" points="1653.015,-310.7886 1642.7476,-313.402 1652.4037,-317.7619 1653.015,-310.7886"/>
</g>
<!-- [root] output.ip -->
<g id="node17" class="node">
<title>[root] output.ip</title>
<polygon fill="none" stroke="#000000" points="1631,-396 1555,-396 1555,-360 1637,-360 1637,-390 1631,-396"/>
<polyline fill="none" stroke="#000000" points="1631,-396 1631,-390 "/>
<polyline fill="none" stroke="#000000" points="1637,-390 1631,-390 "/>
<text text-anchor="middle" x="1596" y="-374.3" font-family="Times,serif" font-size="14.00" fill="#000000">output.ip</text>
</g>
<!-- [root] output.ip&#45;&gt;[root] aws_instance.r100c86 (expand) -->
<g id="edge34" class="edge">
<title>[root] output.ip&#45;&gt;[root] aws_instance.r100c86 (expand)</title>
<path fill="none" stroke="#000000" d="M1585.4016,-359.8314C1580.7123,-351.7925 1575.0972,-342.1666 1569.9202,-333.2918"/>
<polygon fill="#000000" stroke="#000000" points="1572.8031,-331.2875 1564.7411,-324.4133 1566.7566,-334.8146 1572.8031,-331.2875"/>
</g>
<!-- [root] var.region -->
<g id="node25" class="node">
<title>[root] var.region</title>
<polygon fill="none" stroke="#000000" points="512.5,-36 429.5,-36 429.5,0 518.5,0 518.5,-30 512.5,-36"/>
<polyline fill="none" stroke="#000000" points="512.5,-36 512.5,-30 "/>
<polyline fill="none" stroke="#000000" points="518.5,-30 512.5,-30 "/>
<text text-anchor="middle" x="474" y="-14.3" font-family="Times,serif" font-size="14.00" fill="#000000">var.region</text>
</g>
<!-- [root] provider[&quot;registry.terraform.io/hashicorp/aws&quot;]&#45;&gt;[root] var.region -->
<g id="edge40" class="edge">
<title>[root] provider[&quot;registry.terraform.io/hashicorp/aws&quot;]&#45;&gt;[root] var.region</title>
<path fill="none" stroke="#000000" d="M474,-71.8314C474,-64.131 474,-54.9743 474,-46.4166"/>
<polygon fill="#000000" stroke="#000000" points="477.5001,-46.4132 474,-36.4133 470.5001,-46.4133 477.5001,-46.4132"/>
</g>
<!-- [root] var.aws_instance_security_group -->
<g id="node21" class="node">
<title>[root] var.aws_instance_security_group</title>
<polygon fill="none" stroke="#000000" points="1387,-396 1139,-396 1139,-360 1393,-360 1393,-390 1387,-396"/>
<polyline fill="none" stroke="#000000" points="1387,-396 1387,-390 "/>
<polyline fill="none" stroke="#000000" points="1393,-390 1387,-390 "/>
<text text-anchor="middle" x="1266" y="-374.3" font-family="Times,serif" font-size="14.00" fill="#000000">var.aws_instance_security_group</text>
</g>
<!-- [root] var.instancelist -->
<g id="node22" class="node">
<title>[root] var.instancelist</title>
<polygon fill="none" stroke="#000000" points="1531,-396 1411,-396 1411,-360 1537,-360 1537,-390 1531,-396"/>
<polyline fill="none" stroke="#000000" points="1531,-396 1531,-390 "/>
<polyline fill="none" stroke="#000000" points="1537,-390 1531,-390 "/>
<text text-anchor="middle" x="1474" y="-374.3" font-family="Times,serif" font-size="14.00" fill="#000000">var.instancelist</text>
</g>
<!-- [root] var.instancetype -->
<g id="node23" class="node">
<title>[root] var.instancetype</title>
<polygon fill="none" stroke="#000000" points="1784.5,-396 1655.5,-396 1655.5,-360 1790.5,-360 1790.5,-390 1784.5,-396"/>
<polyline fill="none" stroke="#000000" points="1784.5,-396 1784.5,-390 "/>
<polyline fill="none" stroke="#000000" points="1790.5,-390 1784.5,-390 "/>
<text text-anchor="middle" x="1723" y="-374.3" font-family="Times,serif" font-size="14.00" fill="#000000">var.instancetype</text>
</g>
<!-- [root] var.mytypes -->
<g id="node24" class="node">
<title>[root] var.mytypes</title>
<polygon fill="none" stroke="#000000" points="1907,-396 1809,-396 1809,-360 1913,-360 1913,-390 1907,-396"/>
<polyline fill="none" stroke="#000000" points="1907,-396 1907,-390 "/>
<polyline fill="none" stroke="#000000" points="1913,-390 1907,-390 "/>
<text text-anchor="middle" x="1861" y="-374.3" font-family="Times,serif" font-size="14.00" fill="#000000">var.mytypes</text>
</g>
<!-- [root] meta.count&#45;boundary (EachMode fixup) -->
<g id="node26" class="node">
<title>[root] meta.count&#45;boundary (EachMode fixup)</title>
<ellipse fill="none" stroke="#000000" cx="1328" cy="-450" rx="224.4604" ry="18"/>
<text text-anchor="middle" x="1328" y="-446.3" font-family="Times,serif" font-size="14.00" fill="#000000">[root] meta.count&#45;boundary (EachMode fixup)</text>
</g>
<!-- [root] meta.count&#45;boundary (EachMode fixup)&#45;&gt;[root] aws_route_table_association.a (expand) -->
<g id="edge21" class="edge">
<title>[root] meta.count&#45;boundary (EachMode fixup)&#45;&gt;[root] aws_route_table_association.a (expand)</title>
<path fill="none" stroke="#000000" d="M1197.715,-435.3429C1086.0736,-422.7833 926.2156,-404.7993 815.4118,-392.3338"/>
<polygon fill="#000000" stroke="#000000" points="815.5094,-388.8228 805.1808,-391.1828 814.7268,-395.7789 815.5094,-388.8228"/>
</g>
<!-- [root] meta.count&#45;boundary (EachMode fixup)&#45;&gt;[root] aws_route_table_association.b (expand) -->
<g id="edge22" class="edge">
<title>[root] meta.count&#45;boundary (EachMode fixup)&#45;&gt;[root] aws_route_table_association.b (expand)</title>
<path fill="none" stroke="#000000" d="M1159.9485,-438.0777C1131.2725,-436.0471 1101.7818,-433.9611 1074,-432 849.7821,-416.1726 790.5731,-419.9055 562.8591,-396.0468"/>
<polygon fill="#000000" stroke="#000000" points="562.9024,-392.5321 552.5906,-394.9643 562.1685,-399.4935 562.9024,-392.5321"/>
</g>
<!-- [root] meta.count&#45;boundary (EachMode fixup)&#45;&gt;[root] aws_route_table_association.c (expand) -->
<g id="edge23" class="edge">
<title>[root] meta.count&#45;boundary (EachMode fixup)&#45;&gt;[root] aws_route_table_association.c (expand)</title>
<path fill="none" stroke="#000000" d="M1163.3944,-437.7616C1133.6481,-435.7133 1102.906,-433.7032 1074,-432 737.0925,-412.1483 649.0148,-427.8232 309.4482,-396.0862"/>
<polygon fill="#000000" stroke="#000000" points="309.6121,-392.5862 299.328,-395.1333 308.9558,-399.5554 309.6121,-392.5862"/>
</g>
<!-- [root] meta.count&#45;boundary (EachMode fixup)&#45;&gt;[root] aws_security_group_rule.example (expand) -->
<g id="edge24" class="edge">
<title>[root] meta.count&#45;boundary (EachMode fixup)&#45;&gt;[root] aws_security_group_rule.example (expand)</title>
<path fill="none" stroke="#000000" d="M1248.9885,-433.1192C1200.0072,-422.6544 1136.8135,-409.153 1085.2295,-398.1321"/>
<polygon fill="#000000" stroke="#000000" points="1085.9181,-394.7003 1075.4075,-396.0336 1084.4555,-401.5458 1085.9181,-394.7003"/>
</g>
<!-- [root] meta.count&#45;boundary (EachMode fixup)&#45;&gt;[root] output.KeyName -->
<g id="edge25" class="edge">
<title>[root] meta.count&#45;boundary (EachMode fixup)&#45;&gt;[root] output.KeyName</title>
<path fill="none" stroke="#000000" d="M1512.4326,-439.7262C1627.3609,-431.7622 1778.3574,-418.4712 1920.9453,-396.0434"/>
<polygon fill="#000000" stroke="#000000" points="1921.8705,-399.4403 1931.1964,-394.4127 1920.7707,-392.5272 1921.8705,-399.4403"/>
</g>
<!-- [root] meta.count&#45;boundary (EachMode fixup)&#45;&gt;[root] output.Subnets&#45;Attached -->
<g id="edge26" class="edge">
<title>[root] meta.count&#45;boundary (EachMode fixup)&#45;&gt;[root] output.Subnets&#45;Attached</title>
<path fill="none" stroke="#000000" d="M1522.7287,-441.0506C1671.8114,-432.996 1882.7018,-419.0113 2076.1569,-396.1653"/>
<polygon fill="#000000" stroke="#000000" points="2076.7155,-399.6236 2086.2314,-394.9656 2075.8877,-392.6727 2076.7155,-399.6236"/>
</g>
<!-- [root] meta.count&#45;boundary (EachMode fixup)&#45;&gt;[root] output.ip -->
<g id="edge27" class="edge">
<title>[root] meta.count&#45;boundary (EachMode fixup)&#45;&gt;[root] output.ip</title>
<path fill="none" stroke="#000000" d="M1404.6943,-433.035C1444.2491,-423.8069 1493.3877,-411.6062 1545.2061,-396.1033"/>
<polygon fill="#000000" stroke="#000000" points="1546.3515,-399.4136 1554.9112,-393.1702 1544.3263,-392.713 1546.3515,-399.4136"/>
</g>
<!-- [root] meta.count&#45;boundary (EachMode fixup)&#45;&gt;[root] var.aws_instance_security_group -->
<g id="edge28" class="edge">
<title>[root] meta.count&#45;boundary (EachMode fixup)&#45;&gt;[root] var.aws_instance_security_group</title>
<path fill="none" stroke="#000000" d="M1312.3548,-431.8314C1305.1409,-423.454 1296.443,-413.3531 1288.5395,-404.1749"/>
<polygon fill="#000000" stroke="#000000" points="1291.0333,-401.7071 1281.8559,-396.4133 1285.7289,-406.2748 1291.0333,-401.7071"/>
</g>
<!-- [root] meta.count&#45;boundary (EachMode fixup)&#45;&gt;[root] var.instancelist -->
<g id="edge29" class="edge">
<title>[root] meta.count&#45;boundary (EachMode fixup)&#45;&gt;[root] var.instancelist</title>
<path fill="none" stroke="#000000" d="M1364.0899,-432.2022C1383.422,-422.6686 1407.4408,-410.8237 1428.0899,-400.6406"/>
<polygon fill="#000000" stroke="#000000" points="1429.8905,-403.6552 1437.3112,-396.0931 1426.7944,-397.377 1429.8905,-403.6552"/>
</g>
<!-- [root] meta.count&#45;boundary (EachMode fixup)&#45;&gt;[root] var.instancetype -->
<g id="edge30" class="edge">
<title>[root] meta.count&#45;boundary (EachMode fixup)&#45;&gt;[root] var.instancetype</title>
<path fill="none" stroke="#000000" d="M1431.7711,-434.03C1491.5049,-424.4437 1568.1844,-411.474 1645.52,-396.0341"/>
<polygon fill="#000000" stroke="#000000" points="1646.3308,-399.4412 1655.4452,-394.0395 1644.9516,-392.5784 1646.3308,-399.4412"/>
</g>
<!-- [root] meta.count&#45;boundary (EachMode fixup)&#45;&gt;[root] var.mytypes -->
<g id="edge31" class="edge">
<title>[root] meta.count&#45;boundary (EachMode fixup)&#45;&gt;[root] var.mytypes</title>
<path fill="none" stroke="#000000" d="M1495.1174,-437.9751C1583.1527,-429.9185 1692.8999,-417.1623 1798.9822,-396.0214"/>
<polygon fill="#000000" stroke="#000000" points="1799.797,-399.4276 1808.9059,-394.0168 1798.4109,-392.5661 1799.797,-399.4276"/>
</g>
<!-- [root] provider[&quot;registry.terraform.io/hashicorp/aws&quot;] (close) -->
<g id="node27" class="node">
<title>[root] provider[&quot;registry.terraform.io/hashicorp/aws&quot;] (close)</title>
<ellipse fill="none" stroke="#000000" cx="771" cy="-450" rx="293.548" ry="18"/>
<text text-anchor="middle" x="771" y="-446.3" font-family="Times,serif" font-size="14.00" fill="#000000">[root] provider[&quot;registry.terraform.io/hashicorp/aws&quot;] (close)</text>
</g>
<!-- [root] provider[&quot;registry.terraform.io/hashicorp/aws&quot;] (close)&#45;&gt;[root] aws_instance.r100c86 (expand) -->
<g id="edge35" class="edge">
<title>[root] provider[&quot;registry.terraform.io/hashicorp/aws&quot;] (close)&#45;&gt;[root] aws_instance.r100c86 (expand)</title>
<path fill="none" stroke="#000000" d="M785.9339,-432.0178C806.9155,-406.9749 843.5127,-364.1773 852,-360 904.7417,-334.0413 1274.5918,-316.6043 1455.2082,-309.5393"/>
<polygon fill="#000000" stroke="#000000" points="1455.3891,-313.035 1465.2458,-309.1497 1455.1175,-306.0403 1455.3891,-313.035"/>
</g>
<!-- [root] provider[&quot;registry.terraform.io/hashicorp/aws&quot;] (close)&#45;&gt;[root] aws_route_table_association.a (expand) -->
<g id="edge36" class="edge">
<title>[root] provider[&quot;registry.terraform.io/hashicorp/aws&quot;] (close)&#45;&gt;[root] aws_route_table_association.a (expand)</title>
<path fill="none" stroke="#000000" d="M750.0556,-431.8314C739.9309,-423.0485 727.6223,-412.3712 716.6452,-402.8489"/>
<polygon fill="#000000" stroke="#000000" points="718.7851,-400.0718 708.9377,-396.1628 714.1981,-405.3595 718.7851,-400.0718"/>
</g>
<!-- [root] provider[&quot;registry.terraform.io/hashicorp/aws&quot;] (close)&#45;&gt;[root] aws_route_table_association.b (expand) -->
<g id="edge37" class="edge">
<title>[root] provider[&quot;registry.terraform.io/hashicorp/aws&quot;] (close)&#45;&gt;[root] aws_route_table_association.b (expand)</title>
<path fill="none" stroke="#000000" d="M690.092,-432.6626C641.5765,-422.2664 579.6671,-409.0001 528.9882,-398.1403"/>
<polygon fill="#000000" stroke="#000000" points="529.5208,-394.6751 519.0094,-396.002 528.0541,-401.5197 529.5208,-394.6751"/>
</g>
<!-- [root] provider[&quot;registry.terraform.io/hashicorp/aws&quot;] (close)&#45;&gt;[root] aws_route_table_association.c (expand) -->
<g id="edge38" class="edge">
<title>[root] provider[&quot;registry.terraform.io/hashicorp/aws&quot;] (close)&#45;&gt;[root] aws_route_table_association.c (expand)</title>
<path fill="none" stroke="#000000" d="M627.752,-434.2574C538.9014,-424.2615 422.1142,-410.7068 309.2314,-396.1434"/>
<polygon fill="#000000" stroke="#000000" points="309.3887,-392.6346 299.0222,-394.8221 308.4902,-399.5767 309.3887,-392.6346"/>
</g>
<!-- [root] provider[&quot;registry.terraform.io/hashicorp/aws&quot;] (close)&#45;&gt;[root] aws_security_group_rule.example (expand) -->
<g id="edge39" class="edge">
<title>[root] provider[&quot;registry.terraform.io/hashicorp/aws&quot;] (close)&#45;&gt;[root] aws_security_group_rule.example (expand)</title>
<path fill="none" stroke="#000000" d="M825.0998,-432.2946C855.654,-422.295 894.0452,-409.7307 926.199,-399.2076"/>
<polygon fill="#000000" stroke="#000000" points="927.5467,-402.4493 935.962,-396.0124 925.3694,-395.7965 927.5467,-402.4493"/>
</g>
<!-- [root] root -->
<g id="node28" class="node">
<title>[root] root</title>
<ellipse fill="none" stroke="#000000" cx="1039" cy="-522" rx="58.4896" ry="18"/>
<text text-anchor="middle" x="1039" y="-518.3" font-family="Times,serif" font-size="14.00" fill="#000000">[root] root</text>
</g>
<!-- [root] root&#45;&gt;[root] meta.count&#45;boundary (EachMode fixup) -->
<g id="edge41" class="edge">
<title>[root] root&#45;&gt;[root] meta.count&#45;boundary (EachMode fixup)</title>
<path fill="none" stroke="#000000" d="M1084.4742,-510.6708C1128.5275,-499.6956 1196.2408,-482.8258 1249.0932,-469.6585"/>
<polygon fill="#000000" stroke="#000000" points="1250.2593,-472.975 1259.1165,-467.1613 1248.567,-466.1826 1250.2593,-472.975"/>
</g>
<!-- [root] root&#45;&gt;[root] provider[&quot;registry.terraform.io/hashicorp/aws&quot;] (close) -->
<g id="edge42" class="edge">
<title>[root] root&#45;&gt;[root] provider[&quot;registry.terraform.io/hashicorp/aws&quot;] (close)</title>
<path fill="none" stroke="#000000" d="M994.7453,-510.1107C954.4095,-499.2742 893.9954,-483.0435 846.1079,-470.1782"/>
<polygon fill="#000000" stroke="#000000" points="846.9651,-466.7845 836.3995,-467.57 845.1489,-473.5448 846.9651,-466.7845"/>
</g>
</g>
</svg>
